<svg xmlns="http://www.w3.org/2000/svg" viewBox="0 0 11.642 17.463"><path fill="#ffffff" d="M9.936 1.705C8.8.568 7.428 0 5.821 0 4.214 0 2.842.568 1.705 1.705.568 2.842 0 4.214 0 5.821c0 .826.125 1.504.375 2.035l4.15 8.8c.113.25.29.447.528.59.24.145.495.217.768.217s.529-.072.767-.216a1.38 1.38 0 0 0 .54-.591l4.138-8.8c.25-.53.376-1.209.376-2.035 0-1.607-.568-2.979-1.706-4.116zM7.88 7.88a2.804 2.804 0 0 1-2.058.852c-.804 0-1.49-.284-2.058-.852A2.804 2.804 0 0 1 2.91 5.82c0-.804.285-1.49.853-2.058a2.805 2.805 0 0 1 2.058-.853c.803 0 1.49.285 2.058.853.568.568.852 1.254.852 2.058 0 .803-.284 1.489-.852 2.058z"/></svg>